<svg xmlns="http://www.w3.org/2000/svg" viewBox="0 0 24.74 25.36"><defs><style>.cls-1{fill:#339639;}</style></defs><title>v_ornitopod</title><g id="Layer_2" data-name="Layer 2"><g id="Layer_1-2" data-name="Layer 1"><path class="cls-1" d="M13,25.36c-3.55,0-5.64-1.25-7.09-3.42A55.8,55.8,0,0,1,.37,10.3C0,9.21-.32,8,.72,7.08a2.12,2.12,0,0,1,2.76,0c4.14,2.89,5.42.49,6.28-3.19.35-1.51.39-3.86,2.4-3.86,2.29,0,2.39,2.46,2.74,4.15.75,3.58,2,5.57,6,3.17,2-1.2,4.6-1.08,3.69,2-1.51,5-3.26,10.09-7,14.05A6.84,6.84,0,0,1,13,25.36Z"/></g></g></svg>